<mxfile host="app.diagrams.net" modified="2023-12-28T14:04:55.511Z" agent="Mozilla/5.0 (Windows NT 10.0; Win64; x64) AppleWebKit/537.36 (KHTML, like Gecko) Chrome/120.0.0.0 Safari/537.36 Edg/120.0.0.0" etag="qC-snRC3VErWFUUifRuP" version="22.1.13" type="github">
  <diagram name="第 1 页" id="lOVtV4EZBj1M_ySCGY1w">
    <mxGraphModel dx="902" dy="392" grid="0" gridSize="10" guides="1" tooltips="1" connect="1" arrows="1" fold="1" page="1" pageScale="1" pageWidth="827" pageHeight="1169" background="#ffffff" math="0" shadow="0">
      <root>
        <mxCell id="0" />
        <mxCell id="1" parent="0" />
        <mxCell id="PdjgxC993BWzGDdkLLqp-1" value="&lt;u&gt;:店舖管理員&lt;/u&gt;" style="shape=umlActor;verticalLabelPosition=bottom;verticalAlign=top;html=1;outlineConnect=0;fillColor=#A8DADC;strokeColor=#457B9D;labelBackgroundColor=none;fontColor=#1D3557;" parent="1" vertex="1">
          <mxGeometry x="130" y="161.5" width="30" height="60" as="geometry" />
        </mxCell>
        <mxCell id="PdjgxC993BWzGDdkLLqp-2" style="edgeStyle=orthogonalEdgeStyle;rounded=0;orthogonalLoop=1;jettySize=auto;html=1;exitX=0.5;exitY=1;exitDx=0;exitDy=0;entryX=0.5;entryY=0;entryDx=0;entryDy=0;strokeColor=#457B9D;endArrow=none;endFill=0;labelBackgroundColor=none;fontColor=default;" parent="1" source="PdjgxC993BWzGDdkLLqp-5" target="PdjgxC993BWzGDdkLLqp-8" edge="1">
          <mxGeometry relative="1" as="geometry" />
        </mxCell>
        <mxCell id="PdjgxC993BWzGDdkLLqp-3" style="edgeStyle=orthogonalEdgeStyle;rounded=0;orthogonalLoop=1;jettySize=auto;html=1;exitX=0;exitY=0.5;exitDx=0;exitDy=0;strokeColor=#457B9D;endArrow=none;endFill=0;labelBackgroundColor=none;fontColor=default;" parent="1" source="PdjgxC993BWzGDdkLLqp-5" edge="1">
          <mxGeometry relative="1" as="geometry">
            <mxPoint x="160.4000244140625" y="207" as="targetPoint" />
          </mxGeometry>
        </mxCell>
        <mxCell id="PdjgxC993BWzGDdkLLqp-4" style="rounded=0;orthogonalLoop=1;jettySize=auto;html=1;exitX=0;exitY=1;exitDx=0;exitDy=0;strokeColor=#457B9D;endArrow=none;endFill=0;labelBackgroundColor=none;fontColor=default;" parent="1" source="PdjgxC993BWzGDdkLLqp-5" edge="1">
          <mxGeometry relative="1" as="geometry">
            <mxPoint x="174" y="385" as="targetPoint" />
          </mxGeometry>
        </mxCell>
        <mxCell id="PdjgxC993BWzGDdkLLqp-5" value="&lt;u&gt;店鋪管理&lt;/u&gt;" style="rounded=0;whiteSpace=wrap;html=1;strokeColor=#457B9D;fillColor=#A8DADC;labelBackgroundColor=none;fontColor=#1D3557;" parent="1" vertex="1">
          <mxGeometry x="530" y="193" width="56" height="28.5" as="geometry" />
        </mxCell>
        <mxCell id="PdjgxC993BWzGDdkLLqp-6" style="edgeStyle=orthogonalEdgeStyle;rounded=0;orthogonalLoop=1;jettySize=auto;html=1;exitX=1;exitY=0.5;exitDx=0;exitDy=0;entryX=0;entryY=0.5;entryDx=0;entryDy=0;strokeColor=#457B9D;endArrow=none;endFill=0;labelBackgroundColor=none;fontColor=default;" parent="1" source="PdjgxC993BWzGDdkLLqp-7" target="PdjgxC993BWzGDdkLLqp-8" edge="1">
          <mxGeometry relative="1" as="geometry" />
        </mxCell>
        <mxCell id="PdjgxC993BWzGDdkLLqp-7" value="&lt;u&gt;監察控制&lt;/u&gt;" style="rounded=0;whiteSpace=wrap;html=1;strokeColor=#457B9D;fontColor=#1D3557;fillColor=#A8DADC;labelBackgroundColor=none;" parent="1" vertex="1">
          <mxGeometry x="117" y="383" width="56" height="28.5" as="geometry" />
        </mxCell>
        <mxCell id="PdjgxC993BWzGDdkLLqp-8" value="&lt;u&gt;監察檔案&lt;/u&gt;" style="rounded=0;whiteSpace=wrap;html=1;strokeColor=#457B9D;fontColor=#1D3557;fillColor=#A8DADC;labelBackgroundColor=none;" parent="1" vertex="1">
          <mxGeometry x="530" y="383" width="56" height="28.5" as="geometry" />
        </mxCell>
        <mxCell id="PdjgxC993BWzGDdkLLqp-9" value="" style="endArrow=none;endFill=0;html=1;edgeStyle=orthogonalEdgeStyle;align=left;verticalAlign=top;rounded=0;strokeColor=#457B9D;startArrow=open;startFill=0;labelBackgroundColor=none;fontColor=default;dashed=1;" parent="1" edge="1">
          <mxGeometry x="-1" relative="1" as="geometry">
            <mxPoint x="317" y="220.5" as="sourcePoint" />
            <mxPoint x="373" y="221" as="targetPoint" />
          </mxGeometry>
        </mxCell>
        <mxCell id="PdjgxC993BWzGDdkLLqp-10" value="" style="edgeLabel;resizable=0;html=1;align=left;verticalAlign=bottom;strokeColor=#457B9D;fontColor=#1D3557;fillColor=#A8DADC;labelBackgroundColor=none;" parent="PdjgxC993BWzGDdkLLqp-9" connectable="0" vertex="1">
          <mxGeometry x="-1" relative="1" as="geometry" />
        </mxCell>
        <mxCell id="PdjgxC993BWzGDdkLLqp-11" value="" style="endArrow=open;endFill=0;html=1;edgeStyle=orthogonalEdgeStyle;align=left;verticalAlign=top;rounded=0;strokeColor=#457B9D;labelBackgroundColor=none;fontColor=default;" parent="1" edge="1">
          <mxGeometry x="-1" relative="1" as="geometry">
            <mxPoint x="317" y="196" as="sourcePoint" />
            <mxPoint x="373" y="196" as="targetPoint" />
          </mxGeometry>
        </mxCell>
        <mxCell id="PdjgxC993BWzGDdkLLqp-12" value="" style="edgeLabel;resizable=0;html=1;align=left;verticalAlign=bottom;strokeColor=#457B9D;fontColor=#1D3557;fillColor=#A8DADC;labelBackgroundColor=none;" parent="PdjgxC993BWzGDdkLLqp-11" connectable="0" vertex="1">
          <mxGeometry x="-1" relative="1" as="geometry" />
        </mxCell>
        <mxCell id="PdjgxC993BWzGDdkLLqp-13" value="1:登錄" style="text;html=1;align=center;verticalAlign=middle;resizable=0;points=[];autosize=1;strokeColor=none;fillColor=none;fontColor=#1D3557;labelBackgroundColor=none;" parent="1" vertex="1">
          <mxGeometry x="317" y="174" width="52" height="26" as="geometry" />
        </mxCell>
        <mxCell id="PdjgxC993BWzGDdkLLqp-14" value="5:退出" style="text;html=1;align=center;verticalAlign=middle;resizable=0;points=[];autosize=1;strokeColor=none;fillColor=none;fontColor=#1D3557;labelBackgroundColor=none;" parent="1" vertex="1">
          <mxGeometry x="317" y="217" width="52" height="26" as="geometry" />
        </mxCell>
        <mxCell id="PdjgxC993BWzGDdkLLqp-15" value="" style="endArrow=open;endFill=0;html=1;edgeStyle=orthogonalEdgeStyle;align=left;verticalAlign=top;rounded=0;strokeColor=#457B9D;startArrow=none;startFill=0;labelBackgroundColor=none;fontColor=default;" parent="1" edge="1">
          <mxGeometry x="-1" relative="1" as="geometry">
            <mxPoint x="324" y="389" as="sourcePoint" />
            <mxPoint x="380" y="389" as="targetPoint" />
          </mxGeometry>
        </mxCell>
        <mxCell id="PdjgxC993BWzGDdkLLqp-16" value="" style="edgeLabel;resizable=0;html=1;align=left;verticalAlign=bottom;strokeColor=#457B9D;fontColor=#1D3557;fillColor=#A8DADC;labelBackgroundColor=none;" parent="PdjgxC993BWzGDdkLLqp-15" connectable="0" vertex="1">
          <mxGeometry x="-1" relative="1" as="geometry" />
        </mxCell>
        <mxCell id="PdjgxC993BWzGDdkLLqp-17" value="3:生成監察檔案" style="text;html=1;align=center;verticalAlign=middle;resizable=0;points=[];autosize=1;strokeColor=none;fillColor=none;fontColor=#1D3557;labelBackgroundColor=none;" parent="1" vertex="1">
          <mxGeometry x="297" y="366" width="100" height="26" as="geometry" />
        </mxCell>
        <mxCell id="PdjgxC993BWzGDdkLLqp-18" value="" style="endArrow=none;endFill=0;html=1;edgeStyle=orthogonalEdgeStyle;align=left;verticalAlign=top;rounded=0;strokeColor=#457B9D;startArrow=open;startFill=0;labelBackgroundColor=none;fontColor=default;dashed=1;" parent="1" edge="1">
          <mxGeometry x="-1" relative="1" as="geometry">
            <mxPoint x="549" y="284" as="sourcePoint" />
            <mxPoint x="549" y="321" as="targetPoint" />
          </mxGeometry>
        </mxCell>
        <mxCell id="PdjgxC993BWzGDdkLLqp-19" value="" style="edgeLabel;resizable=0;html=1;align=left;verticalAlign=bottom;strokeColor=#457B9D;fontColor=#1D3557;fillColor=#A8DADC;labelBackgroundColor=none;" parent="PdjgxC993BWzGDdkLLqp-18" connectable="0" vertex="1">
          <mxGeometry x="-1" relative="1" as="geometry" />
        </mxCell>
        <mxCell id="PdjgxC993BWzGDdkLLqp-20" value="4:監察結果顯示" style="text;html=1;align=center;verticalAlign=middle;resizable=0;points=[];autosize=1;strokeColor=none;fillColor=none;fontColor=#1D3557;labelBackgroundColor=none;" parent="1" vertex="1">
          <mxGeometry x="490" y="293" width="100" height="26" as="geometry" />
        </mxCell>
        <mxCell id="PdjgxC993BWzGDdkLLqp-21" value="" style="endArrow=none;endFill=0;html=1;align=left;verticalAlign=top;rounded=0;strokeColor=#457B9D;startArrow=open;startFill=0;labelBackgroundColor=none;fontColor=default;" parent="1" edge="1">
          <mxGeometry x="-1" relative="1" as="geometry">
            <mxPoint x="357" y="313" as="sourcePoint" />
            <mxPoint x="401" y="293" as="targetPoint" />
          </mxGeometry>
        </mxCell>
        <mxCell id="PdjgxC993BWzGDdkLLqp-22" value="" style="edgeLabel;resizable=0;html=1;align=left;verticalAlign=bottom;strokeColor=#457B9D;fontColor=#1D3557;fillColor=#A8DADC;labelBackgroundColor=none;" parent="PdjgxC993BWzGDdkLLqp-21" connectable="0" vertex="1">
          <mxGeometry x="-1" relative="1" as="geometry" />
        </mxCell>
        <mxCell id="PdjgxC993BWzGDdkLLqp-23" value="2:錄入監察結果" style="text;html=1;align=center;verticalAlign=middle;resizable=0;points=[];autosize=1;strokeColor=none;fillColor=none;fontColor=#1D3557;labelBackgroundColor=none;" parent="1" vertex="1">
          <mxGeometry x="324" y="304" width="100" height="26" as="geometry" />
        </mxCell>
      </root>
    </mxGraphModel>
  </diagram>
</mxfile>
